<svg xmlns="http://www.w3.org/2000/svg" width="1em" height="1em" viewBox="0 0 24 24"><!-- Icon from Material Design Icons by Pictogrammers - https://github.com/Templarian/MaterialDesign/blob/master/LICENSE --><path fill="currentColor" d="M12 16c1.1 0 2 .9 2 2s-.9 2-2 2s-2-.9-2-2s.9-2 2-2m0-12c1.1 0 2 .9 2 2s-.9 2-2 2s-2-.9-2-2s.9-2 2-2M6 16c1.1 0 2 .9 2 2s-.9 2-2 2s-2-.9-2-2s.9-2 2-2m0-6c1.1 0 2 .9 2 2s-.9 2-2 2s-2-.9-2-2s.9-2 2-2m0-6c1.1 0 2 .9 2 2s-.9 2-2 2s-2-.9-2-2s.9-2 2-2m12 12c1.1 0 2 .9 2 2s-.9 2-2 2s-2-.9-2-2s.9-2 2-2m0-6c1.1 0 2 .9 2 2s-.9 2-2 2s-2-.9-2-2s.9-2 2-2m0-6c1.1 0 2 .9 2 2s-.9 2-2 2s-2-.9-2-2s.9-2 2-2"/></svg>